<svg xmlns="http://www.w3.org/2000/svg" viewBox="0 0 68 64">
  <style>
    .paper { fill: #F8F4ED; }
    .bird { fill: #1A1A1A; }
    @media (prefers-color-scheme: dark) {
      .paper { fill: #1A1612; }
      .bird { fill: #ECE3D0; }
    }
  </style>
  <rect class="paper" width="68" height="64" rx="8"/>
  <path class="bird" fill-rule="evenodd" d="M9 39c1-9 8-15 19-17C31 12 37 7 44 8c7 0 12 5 12 12l5 3q2 1 0 2l-6 3C54 44 43 55 30 56 18 57 9 51 5 43q-1-3 2-1l9 4c-4-2-6-4-7-7Zm10 5c0-10 7-17 17-20 0 11-6 18-17 20Zm31-25a2.5 2.5 0 1 0-5 0 2.5 2.5 0 1 0 5 0Z"/>
</svg>
